<svg id="svg" version="1.1" width="400" height="400" xmlns="http://www.w3.org/2000/svg" xmlns:xlink="http://www.w3.org/1999/xlink" style="display: block;"><g id="svgg"><path id="path0" d="M0.000 3.514 C 0.000 5.446,0.551 7.910,1.225 8.989 C 2.192 10.536,2.192 11.208,1.225 12.175 C -0.263 13.663,-0.411 19.000,1.035 19.000 C 1.749 19.000,1.749 19.601,1.035 20.934 C 0.390 22.140,0.000 33.804,0.000 51.911 L 0.000 80.954 2.492 82.587 C 3.863 83.485,5.663 83.960,6.492 83.641 C 7.322 83.323,8.000 83.499,8.000 84.031 C 8.000 85.745,11.633 85.064,13.500 83.000 C 15.889 80.360,20.020 80.360,20.710 83.000 C 20.998 84.100,21.801 85.000,22.494 85.000 C 23.188 85.000,24.334 85.697,25.041 86.550 C 26.769 88.632,34.359 88.154,34.779 85.937 C 34.941 85.078,33.654 82.888,31.917 81.071 C 29.427 78.465,29.049 77.580,30.130 76.885 C 30.986 76.334,30.281 76.237,28.250 76.626 C 24.972 77.255,24.392 76.509,24.908 72.325 C 24.988 71.679,24.591 70.865,24.027 70.516 C 21.460 68.930,22.842 57.554,25.750 56.333 C 32.339 53.566,33.027 53.614,32.391 56.793 C 31.799 59.755,33.908 61.793,36.141 60.413 C 36.669 60.087,38.658 60.559,40.561 61.462 C 42.465 62.365,44.467 62.829,45.011 62.493 C 46.752 61.417,46.071 59.252,43.806 58.660 C 41.634 58.092,41.631 58.065,43.536 55.960 C 45.465 53.828,47.387 53.728,54.000 55.414 C 58.709 56.614,65.501 56.098,70.463 54.164 C 74.214 52.701,74.947 52.107,73.463 51.730 C 71.963 51.349,72.133 51.205,74.185 51.116 C 75.662 51.052,78.045 51.447,79.481 51.993 C 82.386 53.097,88.242 50.386,85.976 48.985 C 85.188 48.498,85.326 48.089,86.416 47.671 C 87.287 47.336,88.000 46.429,88.000 45.654 C 88.000 44.879,88.722 43.646,89.604 42.914 C 90.486 42.181,91.600 40.551,92.079 39.291 C 92.587 37.957,93.786 37.000,94.950 37.000 C 96.594 37.000,96.856 36.510,96.420 34.250 C 95.980 31.969,96.359 31.287,98.644 30.250 C 103.641 27.982,105.569 29.120,105.188 34.111 C 105.029 36.207,105.523 36.914,107.493 37.409 C 108.872 37.755,110.000 38.480,110.000 39.019 C 110.000 41.011,117.865 40.120,119.000 38.000 C 120.124 35.899,123.446 35.295,124.500 37.000 C 124.840 37.550,126.216 38.000,127.559 38.000 C 129.984 38.000,131.535 39.028,136.904 44.199 C 138.445 45.683,141.812 47.427,144.385 48.075 C 146.959 48.723,149.612 50.016,150.282 50.947 C 151.560 52.725,157.526 56.015,159.404 55.978 C 160.007 55.966,163.095 58.779,166.267 62.228 C 169.590 65.843,172.344 68.076,172.767 67.500 C 174.035 65.771,180.530 65.729,181.951 67.441 C 183.378 69.160,188.000 69.587,188.000 68.000 C 188.000 66.431,190.728 66.821,195.000 69.000 C 201.542 72.338,204.000 71.791,204.000 67.000 C 204.000 64.719,204.480 63.000,205.118 63.000 C 208.013 63.000,212.852 57.281,211.284 55.712 C 210.403 54.831,210.093 53.659,210.546 52.925 C 211.109 52.014,211.562 52.286,212.156 53.893 C 213.331 57.068,215.000 55.537,215.000 51.286 C 215.000 47.753,215.035 47.722,217.000 49.500 C 218.398 50.766,219.000 52.580,219.000 55.533 C 219.000 60.857,221.447 63.477,223.630 60.491 C 224.408 59.427,224.823 57.982,224.553 57.279 C 223.560 54.690,225.081 53.066,227.959 53.642 C 230.004 54.051,231.273 53.623,232.762 52.025 C 234.902 49.728,239.074 47.175,245.222 44.399 C 247.269 43.475,248.705 42.332,248.413 41.859 C 248.121 41.387,248.391 41.000,249.012 41.000 C 250.320 41.000,252.998 38.531,253.004 37.321 C 253.008 36.265,258.259 22.895,259.315 21.250 C 260.929 18.737,266.655 19.743,267.852 22.750 C 271.653 32.301,271.370 32.112,271.962 25.500 C 272.623 18.126,280.000 15.772,280.000 22.935 C 280.000 24.324,280.809 24.565,284.521 24.286 C 288.005 24.024,289.187 24.323,289.673 25.590 C 290.186 26.926,290.894 26.530,293.460 23.474 C 300.665 14.893,312.839 19.360,313.168 30.705 L 313.336 36.500 313.918 30.500 C 314.576 23.715,318.096 21.803,320.618 26.861 C 321.766 29.163,321.811 29.170,322.449 27.162 C 323.464 23.962,330.000 23.111,330.000 26.178 C 330.000 26.709,330.707 26.436,331.571 25.571 C 332.436 24.707,334.686 24.000,336.571 24.000 C 338.636 24.000,340.009 23.503,340.022 22.750 C 340.096 18.499,350.821 10.000,356.111 10.000 C 360.132 10.000,362.263 9.396,365.041 7.472 C 368.956 4.759,371.369 4.953,373.063 8.118 C 373.617 9.153,374.865 10.000,375.835 10.000 C 376.806 10.000,378.092 10.492,378.693 11.093 C 379.484 11.884,380.508 11.713,382.395 10.477 C 383.906 9.487,385.927 9.009,387.200 9.342 C 388.408 9.658,389.893 9.504,390.500 9.000 C 392.981 6.941,396.215 9.023,394.530 11.595 C 393.180 13.655,393.176 13.870,394.497 13.363 C 395.474 12.988,396.000 13.386,396.000 14.500 C 396.000 15.652,396.519 16.015,397.582 15.607 C 398.452 15.273,399.352 15.000,399.582 15.000 C 399.812 15.000,400.000 13.425,400.000 11.500 C 400.000 9.444,399.505 8.000,398.800 8.000 C 397.867 8.000,397.867 7.733,398.800 6.800 C 400.401 5.199,400.315 3.172,398.571 1.429 C 396.890 -0.252,388.895 -0.495,387.313 1.087 C 386.530 1.870,386.038 1.870,385.554 1.087 C 384.531 -0.567,381.294 -0.210,380.586 1.636 C 380.005 3.151,379.824 3.151,378.150 1.636 C 376.535 0.174,371.702 0.000,332.671 0.000 L 289.000 0.000 288.936 3.250 L 288.872 6.500 287.248 3.237 L 285.625 -0.026 149.755 0.014 C 46.024 0.045,13.432 0.338,11.968 1.252 C 10.473 2.186,9.780 2.180,8.825 1.225 C 5.815 -1.785,0.000 -0.277,0.000 3.514 M6.000 3.933 C 6.000 4.996,6.900 6.151,8.000 6.500 C 10.588 7.321,10.588 9.530,8.000 9.725 C 6.636 9.828,6.000 9.259,6.000 7.938 C 6.000 6.667,5.312 6.000,4.000 6.000 C 1.733 6.000,1.437 4.963,3.200 3.200 C 4.947 1.453,6.000 1.728,6.000 3.933 M355.991 16.511 C 354.962 17.750,355.111 18.000,356.878 18.000 C 358.045 18.000,359.000 17.577,359.000 17.059 C 359.000 15.327,357.240 15.006,355.991 16.511 M397.000 18.886 C 397.000 19.373,397.717 21.060,398.592 22.636 C 400.055 25.267,400.131 25.297,399.520 23.000 C 399.154 21.625,398.813 19.938,398.761 19.250 C 398.655 17.846,397.000 17.504,397.000 18.886 M299.984 29.030 C 298.480 31.839,300.506 37.242,302.890 36.783 C 305.252 36.328,305.186 27.659,302.817 27.203 C 301.884 27.024,300.623 27.837,299.984 29.030 M290.168 30.750 C 290.076 31.438,289.100 32.000,288.000 32.000 C 286.900 32.000,286.000 32.477,286.000 33.059 C 286.000 33.641,286.450 33.840,287.000 33.500 C 288.696 32.452,290.245 34.000,289.000 35.500 C 288.203 36.461,288.208 37.010,289.018 37.511 C 290.740 38.576,291.168 37.540,290.734 33.350 C 290.515 31.233,290.261 30.063,290.168 30.750 M103.944 43.647 C 103.115 45.827,103.296 46.627,104.969 48.186 C 106.086 49.226,107.000 50.449,107.000 50.902 C 107.000 51.355,109.025 51.059,111.500 50.244 C 116.564 48.577,116.598 48.506,114.427 44.154 C 112.247 39.783,105.536 39.459,103.944 43.647 M209.163 64.589 C 207.470 66.505,208.489 69.911,210.233 68.167 C 210.875 67.525,212.408 67.000,213.641 67.000 C 214.874 67.000,216.160 66.550,216.500 66.000 C 216.840 65.450,216.218 65.000,215.118 65.000 C 214.018 65.000,212.840 64.550,212.500 64.000 C 211.658 62.637,210.746 62.798,209.163 64.589 M115.000 132.652 C 109.218 134.557,105.744 138.458,103.114 146.000 C 102.210 148.593,101.914 162.988,101.971 201.573 C 102.049 253.504,102.043 253.651,99.916 255.573 C 82.607 271.215,96.039 301.474,120.637 302.249 C 144.164 302.990,157.234 276.792,142.860 257.703 L 138.943 252.500 139.087 204.000 C 139.165 177.325,138.913 153.433,138.525 150.908 C 136.578 138.220,125.111 129.321,115.000 132.652 M126.102 139.270 C 133.182 144.000,132.997 142.297,132.998 202.576 L 133.000 256.651 135.635 259.076 C 147.253 269.765,144.062 288.661,129.555 295.078 C 106.445 305.301,88.220 278.258,105.403 259.239 L 109.000 255.258 109.000 201.030 C 109.000 152.957,109.185 146.412,110.631 143.364 C 113.619 137.069,120.200 135.327,126.102 139.270 M183.591 144.853 C 183.301 145.323,183.347 155.492,183.693 167.453 C 184.215 185.484,184.533 188.808,185.552 186.903 C 186.228 185.640,186.567 183.458,186.307 182.053 C 184.157 170.478,185.493 165.000,190.464 165.000 C 191.794 165.000,193.160 164.550,193.500 164.000 C 193.840 163.450,194.541 163.000,195.059 163.000 C 196.586 163.000,196.135 165.181,194.338 166.495 C 193.257 167.286,192.922 168.354,193.381 169.549 C 194.824 173.310,197.000 166.289,197.000 157.872 C 197.000 150.485,195.954 146.568,193.500 144.765 C 192.108 143.743,184.234 143.813,183.591 144.853 M210.200 145.200 C 208.483 146.917,208.691 160.009,210.474 162.362 C 214.030 167.057,235.838 166.954,234.254 162.250 C 233.759 160.779,236.816 160.599,240.236 161.899 C 243.662 163.202,248.000 162.140,248.000 159.998 C 248.000 156.483,254.529 146.591,256.176 147.609 C 256.789 147.988,256.744 147.391,256.065 146.121 C 254.706 143.582,212.662 142.738,210.200 145.200 M267.625 144.798 C 267.354 145.237,267.504 146.198,267.959 146.933 C 268.414 147.669,268.552 150.849,268.266 153.999 C 267.965 157.325,268.206 160.517,268.843 161.613 C 269.693 163.076,269.946 161.311,269.970 153.750 C 269.996 145.122,269.231 142.199,267.625 144.798 M145.184 158.750 L 145.500 161.500 157.000 161.500 L 168.500 161.500 168.816 158.750 L 169.133 156.000 157.000 156.000 L 144.867 156.000 145.184 158.750 M144.309 167.636 C 143.013 171.014,145.363 172.500,152.000 172.500 C 158.637 172.500,160.987 171.014,159.691 167.636 C 159.191 166.335,157.616 166.000,152.000 166.000 C 146.384 166.000,144.809 166.335,144.309 167.636 M145.200 177.200 C 140.797 181.603,144.334 183.386,156.931 183.111 C 168.636 182.855,171.064 181.856,169.062 178.117 C 167.722 175.613,147.562 174.838,145.200 177.200 M113.250 184.635 C 112.282 185.047,112.000 193.477,112.000 221.966 L 112.000 258.765 108.096 262.669 C 96.609 274.155,104.286 292.500,120.579 292.500 C 137.901 292.500,144.628 272.344,131.259 260.500 C 129.007 258.505,129.001 258.418,128.658 222.241 C 128.469 202.298,128.131 185.816,127.907 185.614 C 127.160 184.940,114.519 184.096,113.250 184.635 M144.309 188.636 C 143.013 192.014,145.363 193.500,152.000 193.500 C 158.637 193.500,160.987 192.014,159.691 188.636 C 159.191 187.335,157.616 187.000,152.000 187.000 C 146.384 187.000,144.809 187.335,144.309 188.636 M191.397 195.275 L 189.293 198.525 193.153 198.157 C 197.711 197.722,198.521 196.807,196.793 194.041 C 195.032 191.221,193.844 191.493,191.397 195.275 M145.120 199.776 C 142.893 203.937,145.295 205.000,156.927 205.000 C 168.547 205.000,170.805 204.112,169.515 200.048 C 168.586 197.122,146.671 196.877,145.120 199.776 M272.229 237.171 C 270.041 239.359,271.298 257.000,273.642 257.000 C 274.599 257.000,275.000 255.571,275.000 252.167 C 275.000 244.644,277.343 245.261,279.365 253.317 C 280.625 258.338,285.077 254.664,284.955 248.703 C 284.915 246.761,284.766 246.837,283.695 249.344 C 282.294 252.622,279.830 250.977,278.687 246.000 C 276.830 237.921,276.279 236.485,274.939 236.227 C 274.125 236.070,272.905 236.495,272.229 237.171 M286.968 239.584 C 285.482 243.493,285.730 246.318,287.500 245.638 C 288.708 245.175,289.000 246.019,289.000 249.972 C 289.000 257.247,290.650 256.945,291.243 249.562 C 292.068 239.289,289.425 233.121,286.968 239.584 M315.360 247.000 C 315.360 252.225,315.529 254.363,315.735 251.750 C 315.941 249.137,315.941 244.863,315.735 242.250 C 315.529 239.637,315.360 241.775,315.360 247.000 M380.785 241.396 C 379.483 242.363,379.349 242.949,380.230 243.830 C 380.869 244.469,381.484 246.906,381.597 249.246 C 381.710 251.585,381.847 254.063,381.901 254.750 C 381.956 255.438,383.012 255.986,384.250 255.968 C 386.334 255.939,386.371 255.838,384.750 254.608 C 382.762 253.099,382.419 247.954,384.098 244.818 C 385.645 241.925,383.314 239.518,380.785 241.396 M327.345 243.829 C 328.436 245.034,329.000 247.420,329.000 250.829 C 329.000 257.852,330.716 257.404,331.220 250.250 C 331.637 244.331,330.488 242.000,327.154 242.000 C 325.938 242.000,325.971 242.310,327.345 243.829 M335.811 244.039 C 337.495 245.607,338.000 247.223,338.000 251.039 C 338.000 253.768,338.450 256.000,339.000 256.000 C 340.422 256.000,340.245 244.645,338.800 243.200 C 338.140 242.540,336.705 242.000,335.611 242.000 C 333.692 242.000,333.699 242.071,335.811 244.039 M349.750 243.944 C 351.416 245.333,352.000 246.891,352.000 249.943 C 352.000 253.282,351.573 254.236,349.750 254.969 C 347.627 255.822,347.616 255.877,349.550 255.937 C 352.640 256.032,354.000 254.051,354.000 249.455 C 354.000 245.197,351.789 241.966,348.921 242.033 C 347.973 242.055,348.248 242.691,349.750 243.944 M360.000 242.709 C 363.731 244.081,365.117 246.213,363.465 248.039 C 362.060 249.591,362.070 249.813,363.563 250.386 C 364.749 250.841,365.037 251.718,364.587 253.509 C 364.201 255.046,364.388 256.000,365.075 256.000 C 365.687 256.000,366.412 255.142,366.686 254.092 C 367.177 252.216,367.216 252.216,369.092 254.092 C 370.142 255.142,372.238 255.948,373.750 255.884 C 375.807 255.797,375.996 255.650,374.500 255.300 C 368.232 253.832,368.994 244.385,375.514 242.735 C 377.484 242.236,377.484 242.231,375.500 242.121 C 374.400 242.060,372.169 243.075,370.543 244.376 L 367.585 246.742 365.720 244.371 C 364.541 242.873,362.869 242.029,361.177 242.079 C 359.631 242.125,359.133 242.391,360.000 242.709 M321.000 249.617 C 321.000 257.669,322.712 257.227,323.126 249.067 C 323.307 245.512,322.987 243.496,322.201 243.234 C 321.345 242.948,321.000 244.782,321.000 249.617 M342.479 244.034 C 341.515 245.594,341.380 258.712,342.318 259.651 C 343.982 261.317,347.042 255.703,345.436 253.930 C 343.787 252.108,343.504 246.424,345.016 245.490 C 346.135 244.799,345.400 243.000,344.000 243.000 C 343.515 243.000,342.830 243.465,342.479 244.034 M294.000 245.800 C 294.000 246.790,294.396 248.028,294.879 248.550 C 297.257 251.119,298.302 257.306,296.573 258.571 C 295.642 259.251,295.297 260.066,295.807 260.380 C 297.190 261.236,299.592 258.018,300.943 253.500 C 301.601 251.300,302.634 248.488,303.238 247.252 C 303.842 246.015,304.074 244.741,303.754 244.420 C 303.433 244.100,302.406 245.449,301.472 247.419 C 299.354 251.881,298.652 251.893,296.567 247.500 C 294.715 243.597,294.000 243.123,294.000 245.800 M357.143 250.890 C 355.140 252.159,356.679 256.000,359.190 256.000 C 360.819 256.000,361.009 255.715,360.105 254.627 C 359.478 253.871,359.246 252.521,359.590 251.627 C 360.272 249.848,359.266 249.546,357.143 250.890 M274.401 290.905 C 256.634 298.974,264.014 327.935,283.257 325.656 C 286.056 325.324,288.809 324.591,289.373 324.027 C 292.670 320.730,294.280 325.625,291.602 330.802 C 288.450 336.898,284.177 338.519,275.496 336.915 C 269.296 335.768,268.208 336.205,267.779 340.012 C 266.959 347.274,287.735 348.264,295.583 341.338 C 305.349 332.718,307.207 307.315,298.894 296.071 C 294.075 289.552,282.675 287.148,274.401 290.905 M321.450 291.407 C 309.678 296.535,307.739 315.685,318.235 323.171 C 322.063 325.902,333.550 326.448,336.455 324.037 C 338.791 322.098,340.367 324.053,339.532 327.854 C 337.842 335.549,331.480 338.760,321.562 336.927 C 314.991 335.712,315.226 335.619,314.398 339.762 C 312.559 348.953,336.335 348.268,344.354 338.900 C 350.440 331.789,352.284 309.196,347.560 299.615 C 343.521 291.424,330.679 287.387,321.450 291.407 M333.434 297.975 C 343.609 301.844,341.428 318.000,330.730 318.000 C 320.846 318.000,317.594 299.537,327.158 297.718 C 328.446 297.473,329.808 297.211,330.185 297.136 C 330.562 297.061,332.024 297.439,333.434 297.975 M288.150 299.080 C 293.621 302.008,294.661 313.016,289.750 316.011 C 282.756 320.276,275.000 317.111,275.000 309.993 C 275.000 300.220,280.991 295.249,288.150 299.080 M363.165 328.954 C 358.040 329.785,356.755 331.321,357.414 335.831 C 357.682 337.663,357.406 341.624,356.802 344.632 C 355.426 351.484,356.123 352.286,363.456 352.286 C 375.974 352.286,376.625 343.354,364.281 340.963 L 360.500 340.230 364.095 340.115 C 368.407 339.977,370.527 337.830,371.289 332.828 C 371.816 329.374,370.675 327.656,368.168 328.125 C 367.801 328.194,365.549 328.567,363.165 328.954 M375.667 329.667 C 374.954 330.380,374.716 346.000,375.418 346.000 C 375.648 346.000,376.548 346.273,377.418 346.607 C 378.757 347.121,379.002 346.239,379.015 340.857 C 379.032 333.757,379.506 332.580,382.750 331.567 C 383.988 331.181,385.000 330.446,385.000 329.933 C 385.000 328.877,376.693 328.640,375.667 329.667 M366.500 334.000 C 366.500 335.874,365.902 336.584,364.113 336.837 C 361.213 337.247,359.781 335.277,361.137 332.743 C 362.642 329.931,366.500 330.836,366.500 334.000 M367.750 347.250 C 367.521 347.938,365.833 348.500,364.000 348.500 C 362.167 348.500,360.479 347.938,360.250 347.250 C 359.961 346.383,361.111 346.000,364.000 346.000 C 366.889 346.000,368.039 346.383,367.750 347.250 M-0.000 382.645 C -0.000 383.720,0.489 385.089,1.087 385.687 C 1.870 386.470,1.870 386.962,1.087 387.446 C -2.626 389.741,0.990 397.901,5.750 397.968 C 6.988 397.986,8.000 398.450,8.000 399.000 C 8.000 399.550,10.025 400.000,12.500 400.000 C 15.451 400.000,17.000 399.567,17.000 398.741 C 17.000 397.081,13.210 394.752,11.864 395.584 C 11.284 395.943,9.699 395.642,8.343 394.916 C 6.393 393.873,5.471 393.850,3.938 394.806 C 1.082 396.590,1.325 393.692,4.191 391.789 C 6.189 390.462,6.269 390.064,5.099 387.240 C 3.288 382.867,0.000 379.905,-0.000 382.645 M396.154 384.226 C 394.652 386.597,394.428 387.648,395.306 388.195 C 396.226 388.768,396.214 389.401,395.250 390.956 C 393.633 393.566,393.664 393.778,395.750 394.296 C 396.712 394.535,396.313 394.587,394.862 394.412 C 393.273 394.221,391.583 394.803,390.612 395.876 C 387.750 399.039,388.656 400.000,394.500 400.000 L 400.000 400.000 400.000 390.500 C 400.000 380.279,399.337 379.198,396.154 384.226 M386.000 394.709 C 381.064 396.524,379.750 400.000,384.000 400.000 C 386.027 400.000,387.000 399.503,387.000 398.469 C 387.000 397.626,387.672 396.679,388.494 396.364 C 389.316 396.048,389.740 395.388,389.435 394.895 C 388.828 393.913,388.251 393.882,386.000 394.709 " stroke="none" fill="#000000" fill-rule="evenodd"></path></g></svg>